<svg width="162" height="28" viewBox="0 0 162 28" fill="none" xmlns="http://www.w3.org/2000/svg">
<path d="M0.551851 27.07C0.499293 26.5063 0.447931 25.9133 0.397762 25.291C0.347594 24.6687 0.265772 23.8166 0.152296 22.7345L0 21.3496C1.04495 21.7685 2.11273 22.1279 3.19823 22.4263C4.00405 22.6523 4.83578 22.7727 5.6726 22.7847C6.18675 22.797 6.70007 22.7367 7.19735 22.6055C7.52589 22.5283 7.82364 22.3541 8.052 22.1057C8.21838 21.9206 8.31363 21.6826 8.32076 21.4338C8.31617 21.2161 8.24556 21.005 8.1183 20.8283C7.85752 20.512 7.5507 20.2366 7.2081 20.0114C6.16054 19.241 5.23721 18.5423 4.4381 17.9153C3.78137 17.4216 3.17735 16.8614 2.63562 16.2438C2.24244 15.7753 1.93054 15.2442 1.71289 14.6726C1.50652 14.1117 1.40273 13.5182 1.4065 12.9205C1.40624 11.8584 1.72455 10.8205 2.32028 9.94117C2.92827 9.01793 3.82413 8.3485 5.00787 7.93286C6.1916 7.51723 7.63632 7.30881 9.34204 7.30762C11.123 7.30762 13.3979 7.53813 16.1667 7.99915L16.4695 13.3827C15.0486 12.7932 13.5284 12.4801 11.9902 12.4601C10.9785 12.4601 10.2445 12.564 9.78818 12.7718C9.33488 12.9814 9.10733 13.2985 9.10733 13.7285C9.10621 13.8676 9.13175 14.0056 9.18258 14.1351C9.25231 14.2856 9.34953 14.4217 9.46926 14.5364C9.62354 14.6941 9.79075 14.8385 9.96915 14.9682C10.1674 15.1151 10.6512 15.4579 11.4204 15.9965C12.1897 16.5352 12.7923 16.9771 13.2283 17.3223C13.8344 17.7799 14.3857 18.3059 14.8713 18.8899C15.2398 19.3529 15.532 19.8718 15.7367 20.427C15.9365 20.9789 16.0371 21.5617 16.0341 22.1487C16.0424 23.0291 15.8134 23.8954 15.3712 24.6568C14.8865 25.4608 14.1963 26.1213 13.3716 26.5702C12.4742 27.0882 11.496 27.4516 10.478 27.6451C9.41681 27.8418 8.33931 27.9372 7.26006 27.9299C6.3252 27.9211 5.39152 27.8613 4.46318 27.7508C3.34156 27.6182 2.03779 27.3913 0.551851 27.07Z" fill="#FF1B44"/>
<path d="M30.7639 7.30765C32.3219 7.30436 33.8702 7.55301 35.3489 8.04397C36.7218 8.4764 37.9889 9.19166 39.0685 10.1436C40.0561 11.0238 40.8232 12.1234 41.3082 13.3541C41.7935 14.6109 42.0367 15.9482 42.0249 17.2954C42.0315 18.6261 41.8134 19.9483 41.3798 21.2063C40.9163 22.5114 40.1769 23.7011 39.2119 24.6945C38.128 25.8147 36.7845 26.6503 35.3005 27.1274C32.1499 28.1693 28.7526 28.2025 25.5822 27.2223C24.1925 26.8116 22.9086 26.1037 21.8196 25.1477C20.8206 24.2481 20.0441 23.1289 19.5513 21.8782C19.0422 20.6073 18.7824 19.2503 18.7862 17.8813C18.781 16.5139 19.032 15.1576 19.5262 13.8826C20.0427 12.5812 20.8441 11.412 21.8716 10.4607C23.0131 9.40923 24.3671 8.61501 25.842 8.13175C27.425 7.58363 29.0887 7.30506 30.7639 7.30765ZM30.6295 12.9599C29.8377 12.9385 29.0593 13.1675 28.4052 13.6144C27.7512 14.0612 27.2548 14.703 26.9869 15.4484C26.6514 16.2955 26.4828 17.1995 26.4906 18.1106C26.4906 19.5211 26.843 20.6008 27.5477 21.3497C27.8842 21.7156 28.2951 22.0053 28.7527 22.1994C29.2104 22.3934 29.7043 22.4873 30.2013 22.4748C30.9747 22.4887 31.734 22.2668 32.3782 21.8388C33.0491 21.3712 33.5567 20.7052 33.8295 19.9344C34.1613 19.0732 34.3279 18.1573 34.3204 17.2345C34.3304 16.4999 34.1997 15.7701 33.9352 15.0847C33.6881 14.4538 33.2495 13.9162 32.681 13.5476C32.0714 13.1508 31.3567 12.9461 30.6295 12.9599Z" fill="#FF1B44"/>
<path d="M60.8606 21.3012C60.7961 21.8135 60.6421 22.7553 60.3984 24.1264L59.8985 27.2132C57.9665 27.6849 55.9853 27.9255 53.9966 27.9298C52.758 27.9503 51.5221 27.8094 50.3199 27.5106C49.0854 27.182 47.9416 26.5773 46.9748 25.7424C45.9915 24.9118 45.2319 23.848 44.7656 22.6484C44.1958 21.1513 43.9149 19.5598 43.9378 17.9582C43.9346 16.3908 44.2082 14.8352 44.7459 13.3629C45.2306 11.9719 46.0496 10.7213 47.1307 9.7207C48.1188 8.79953 49.3208 8.13889 50.6281 7.79839C52.0187 7.45803 53.4465 7.29312 54.8781 7.30751C55.7962 7.30795 56.7136 7.35639 57.6266 7.45262C58.7791 7.58953 59.922 7.79775 61.0488 8.07607L61.0882 8.51858C61.1252 8.9808 61.1539 9.45197 61.1742 9.9321C61.1945 10.4122 61.2363 11.1712 61.2996 12.2091L61.4143 13.92C59.5808 13.2811 57.9592 12.961 56.5498 12.9598C55.6282 12.9394 54.7152 13.1403 53.8873 13.5456C53.1532 13.9086 52.5589 14.5029 52.1959 15.2368C51.8163 16.0384 51.6286 16.9174 51.6476 17.8041C51.6198 18.6572 51.7877 19.5054 52.1385 20.2836C52.4675 20.9523 53.0221 21.4834 53.7045 21.7831C54.4466 22.1213 55.2541 22.2919 56.0696 22.2829C56.5882 22.2759 57.1056 22.231 57.6176 22.1485C58.2149 22.059 58.7339 21.9592 59.1746 21.8494C59.7469 21.6999 60.3099 21.5168 60.8606 21.3012Z" fill="#FF1B44"/>
<path d="M63.8887 27.4337C64.0678 25.8715 64.2016 24.584 64.29 23.5712C64.3784 22.5584 64.4644 21.2643 64.548 19.689C64.6304 18.1124 64.7039 16.3698 64.7684 14.4613C64.8329 12.5527 64.8837 10.3354 64.9207 7.80931C66.593 7.83678 67.9272 7.84992 68.9234 7.84873C69.8336 7.84873 71.1416 7.83559 72.8473 7.80931C72.6275 10.235 72.4686 12.3616 72.3707 14.189C72.2727 16.0163 72.213 17.9583 72.1915 20.015C72.1413 23.6542 72.1157 26.1271 72.1145 27.4337C70.5915 27.4087 69.2776 27.3961 68.1727 27.3961C67.0678 27.3961 65.6398 27.4087 63.8887 27.4337ZM65.0999 5.35671C65.1763 3.83032 65.2145 2.62522 65.2145 1.7414C65.2145 1.48521 65.2145 1.13944 65.1966 0.704102C66.7495 0.731572 68.0502 0.74471 69.099 0.743515C70.5467 0.743515 71.8152 0.730377 72.9046 0.704102C72.8664 1.10182 72.8407 1.43505 72.8276 1.70378L72.7165 4.07935C72.6914 4.43765 72.6789 4.86045 72.6789 5.34775C71.4091 5.32028 70.1914 5.30714 69.0255 5.30834C67.8191 5.30834 66.5106 5.32446 65.0999 5.35671Z" fill="#FF1B44"/>
<path d="M77.7037 13.4022C77.9426 12.1314 78.0961 11.2566 78.1642 10.7776C78.2323 10.2987 78.335 9.54564 78.4724 8.51849C82.1634 7.71111 85.3359 7.30742 87.99 7.30742C89.3909 7.29354 90.7875 7.46523 92.1433 7.81801C93.3987 8.1572 94.3793 8.70481 95.0853 9.46084C95.7912 10.2169 96.1436 11.2972 96.1424 12.7017C96.1424 13.4183 96.0468 15.0307 95.8557 17.5389C95.6646 20.047 95.5171 23.3404 95.4132 27.4191C94.1578 27.3941 92.9077 27.3815 91.6631 27.3815C90.4566 27.3815 89.1744 27.3941 87.8162 27.4191C87.9906 26.011 88.1841 23.1022 88.3968 18.6926C87.9118 18.9243 87.5314 19.0909 87.2554 19.1924C86.9813 19.2946 86.4975 19.4486 85.8077 19.6547C85.1179 19.8607 84.5768 20.0327 84.1952 20.1724C83.8308 20.2993 83.4877 20.4805 83.1775 20.7099C82.9267 20.8865 82.7176 21.1158 82.5647 21.3817C82.4426 21.6192 82.3811 21.8832 82.3855 22.1503C82.3838 22.3632 82.4295 22.5739 82.5194 22.7669C82.6093 22.96 82.741 23.1306 82.9051 23.2664C83.2515 23.5721 83.8028 23.7256 84.5589 23.7268C84.848 23.7256 85.1366 23.7034 85.4225 23.6605C85.8545 23.5833 86.2794 23.4707 86.6928 23.3237C86.3202 24.3102 85.8776 25.7518 85.3652 27.6485C84.3239 27.8272 83.2699 27.9213 82.2135 27.9297C80.6237 27.9297 79.3008 27.7088 78.2449 27.2669C77.2115 26.8463 76.3508 26.0887 75.8027 25.117C75.259 24.2236 74.9634 23.2013 74.9463 22.1556C74.9466 21.5521 75.054 20.9534 75.2634 20.3874C75.4971 19.7724 75.832 19.2007 76.2542 18.6962C76.7025 18.1459 77.2338 17.669 77.8292 17.2827C78.6037 16.8144 79.4329 16.4431 80.2982 16.1773C81.6018 15.7715 82.9297 15.4484 84.274 15.2099C84.9405 15.0833 85.5527 14.9453 86.1105 14.796C86.5169 14.699 86.9153 14.5708 87.302 14.4126C87.5153 14.3197 87.7101 14.1892 87.8772 14.0275C88.0095 13.9037 88.1146 13.7538 88.1859 13.5873C88.2571 13.4207 88.2929 13.2412 88.2911 13.06C88.299 12.8349 88.2461 12.6117 88.1379 12.4141C88.0298 12.2164 87.8704 12.0515 87.6765 11.9367C87.2656 11.674 86.6636 11.5426 85.8704 11.5426C83.6714 11.539 80.9492 12.1589 77.7037 13.4022Z" fill="#FF1B44"/>
<path d="M99.3027 27.4341L99.6467 23.2992L100.39 8.92935L100.6 1.19531C102.384 1.22278 103.726 1.23592 104.624 1.23473C105.79 1.23473 107.079 1.22159 108.492 1.19531L108.053 7.09661L107.348 21.6295L107.195 27.4341C105.822 27.4233 104.583 27.4174 103.479 27.4162L99.3027 27.4341Z" fill="#FF1B44"/>
<path d="M111.981 27.4337C112.22 24.9746 112.515 20.2718 112.866 13.3254H110.522C110.561 12.9277 110.615 12.0815 110.686 10.7868C110.756 9.49215 110.798 8.55697 110.811 7.98129H113.542C113.527 7.46892 113.522 7.02641 113.522 6.65377C113.502 5.72771 113.562 4.80169 113.701 3.88585C113.8 3.27733 114.029 2.69736 114.373 2.18569C114.743 1.67677 115.215 1.24982 115.758 0.93162C116.377 0.558057 117.063 0.306878 117.777 0.191718C118.547 0.0627042 119.326 -0.00141922 120.106 2.38207e-05C120.913 0.00399101 121.719 0.0518358 122.52 0.143346C123.569 0.276215 124.606 0.485181 125.625 0.768591C125.662 2.80616 125.745 4.49796 125.874 5.844C124.605 5.38178 123.465 5.15068 122.454 5.15068C121.762 5.15068 121.221 5.31132 120.83 5.6326C120.44 5.95388 120.244 6.54329 120.243 7.40084L120.262 7.97771H124.682C124.58 9.45035 124.478 11.2317 124.376 13.3218H120.386L119.752 27.4302C118.225 27.4051 116.917 27.3925 115.828 27.3925C114.738 27.3925 113.456 27.4063 111.981 27.4337Z" fill="#FF1B44"/>
<path d="M126.218 27.4337C126.397 25.8715 126.531 24.584 126.619 23.5712C126.708 22.5584 126.794 21.2643 126.877 19.689C126.962 18.1124 127.035 16.3698 127.098 14.4613C127.16 12.5527 127.21 10.3354 127.25 7.80931C128.922 7.83678 130.256 7.84992 131.253 7.84873C132.163 7.84873 133.471 7.83559 135.176 7.80931C134.957 10.235 134.801 12.3616 134.711 14.189C134.62 16.0163 134.56 17.9583 134.531 20.015C134.48 23.6542 134.454 26.1271 134.453 27.4337C132.93 27.4087 131.616 27.3961 130.511 27.3961C129.406 27.3961 127.975 27.4087 126.218 27.4337ZM127.429 5.35671C127.505 3.83032 127.544 2.62522 127.545 1.7414C127.545 1.48521 127.545 1.13944 127.526 0.704102C129.079 0.731572 130.379 0.74471 131.428 0.743515C132.876 0.743515 134.145 0.730377 135.236 0.704102C135.196 1.10182 135.17 1.43505 135.158 1.70378L135.042 4.0883C135.017 4.44661 135.004 4.86941 135.004 5.35671C133.736 5.32924 132.518 5.3161 131.351 5.31729C130.147 5.31132 128.84 5.32446 127.429 5.35671Z" fill="#FF1B44"/>
<path d="M136.144 27.4338L140.526 21.6096L143.775 17.1505L137.744 7.80762C139.617 7.83509 141.225 7.84823 142.569 7.84703C144.261 7.84703 145.652 7.83389 146.742 7.80762L148.779 12.2094C148.908 12.4799 149.092 12.8956 149.336 13.4635C150.323 11.7723 151.489 9.88818 152.835 7.8112C153.976 7.83867 155.341 7.85181 156.931 7.85061C158.404 7.85061 159.807 7.83748 161.14 7.8112L158.065 11.8439C157.462 12.6394 156.174 14.3825 154.201 17.0734C155.379 19.1098 157.533 22.5633 160.66 27.4338C159.212 27.4064 157.783 27.3926 156.372 27.3926C154.656 27.3926 153.118 27.4052 151.758 27.4303C150.922 25.6387 150.285 24.3124 149.847 23.4513C149.408 22.5901 149.033 21.8025 148.721 21.0882L148.107 22.1452C147.913 22.4641 147.618 22.9383 147.222 23.5677L144.78 27.4338C143.396 27.4088 142.051 27.3962 140.743 27.3962C139.229 27.3938 137.696 27.4064 136.144 27.4338Z" fill="#FF1B44"/>
</svg>
