<svg width="132" height="27" viewBox="0 0 132 27" fill="none" xmlns="http://www.w3.org/2000/svg">
<path d="M1.18709 23.6287C1.14479 23.1675 1.10345 22.6823 1.06307 22.1732C1.02269 21.664 0.956834 20.9668 0.8655 20.0815L0.74292 18.9484C1.58398 19.2911 2.44341 19.5852 3.3171 19.8293C3.96569 20.0142 4.63513 20.1127 5.30867 20.1225C5.7225 20.1326 6.13566 20.0833 6.53591 19.9759C6.80034 19.9127 7.03999 19.7703 7.2238 19.567C7.35771 19.4156 7.43437 19.2208 7.44012 19.0173C7.43642 18.8392 7.37959 18.6664 7.27716 18.5219C7.06727 18.263 6.82031 18.0377 6.54456 17.8534C5.7014 17.2232 4.95823 16.6515 4.31505 16.1385C3.78646 15.7345 3.3003 15.2762 2.86428 14.7709C2.54781 14.3875 2.29677 13.953 2.12159 13.4854C1.95548 13.0264 1.87195 12.5408 1.87498 12.0518C1.87478 11.1828 2.13097 10.3337 2.61046 9.6142C3.09982 8.85882 3.82088 8.3111 4.77364 7.97104C5.7264 7.63097 6.88923 7.46045 8.26213 7.45947C9.69559 7.45947 11.5266 7.64807 13.7552 8.02527L13.9989 12.43C12.8552 11.9477 11.6316 11.6915 10.3936 11.6751C9.57926 11.6751 8.98847 11.7601 8.62121 11.9302C8.25636 12.1017 8.07321 12.3611 8.07321 12.7129C8.07231 12.8267 8.09287 12.9397 8.13378 13.0456C8.1899 13.1687 8.26815 13.2801 8.36452 13.374C8.4887 13.5029 8.62328 13.6211 8.76687 13.7272C8.92646 13.8474 9.31583 14.1279 9.93498 14.5686C10.5541 15.0093 11.0392 15.3709 11.3901 15.6533C11.8779 16.0277 12.3217 16.4581 12.7125 16.9359C13.0091 17.3147 13.2443 17.7393 13.409 18.1935C13.5698 18.6451 13.6509 19.1219 13.6484 19.6021C13.6551 20.3225 13.4707 21.0313 13.1149 21.6543C12.7247 22.3121 12.1692 22.8525 11.5054 23.2197C10.7831 23.6436 9.99581 23.9409 9.17643 24.0992C8.3223 24.2602 7.45505 24.3382 6.58638 24.3323C5.83394 24.3251 5.08244 24.2761 4.33524 24.1857C3.43247 24.0772 2.38309 23.8916 1.18709 23.6287Z" fill="white"/>
<path d="M25.5024 7.4595C26.7565 7.45681 28.0027 7.66025 29.1928 8.06194C30.2979 8.41575 31.3177 9.00096 32.1867 9.77986C32.9815 10.5 33.599 11.3997 33.9893 12.4066C34.3799 13.4349 34.5757 14.529 34.5662 15.6313C34.5715 16.72 34.396 17.8018 34.047 18.8312C33.6739 19.8989 33.0787 20.8723 32.302 21.6851C31.4297 22.6016 30.3483 23.2853 29.1539 23.6756C26.618 24.5282 23.8836 24.5553 21.3318 23.7533C20.2133 23.4172 19.1799 22.8381 18.3034 22.0559C17.4993 21.3198 16.8744 20.4041 16.4777 19.3808C16.0679 18.341 15.8588 17.2308 15.8619 16.1106C15.8577 14.9918 16.0597 13.8822 16.4575 12.839C16.8732 11.7742 17.5182 10.8176 18.3452 10.0393C19.264 9.17898 20.3538 8.52916 21.5409 8.13377C22.815 7.6853 24.1541 7.45738 25.5024 7.4595ZM25.3943 12.0841C24.7569 12.0666 24.1304 12.254 23.604 12.6195C23.0776 12.9851 22.6781 13.5102 22.4625 14.1201C22.1924 14.8132 22.0567 15.5528 22.063 16.2983C22.063 17.4523 22.3466 18.3357 22.9138 18.9484C23.1846 19.2478 23.5153 19.4849 23.8837 19.6436C24.2521 19.8024 24.6496 19.8792 25.0496 19.8689C25.6721 19.8803 26.2833 19.6988 26.8018 19.3486C27.3418 18.966 27.7503 18.4211 27.9699 17.7904C28.237 17.0859 28.371 16.3365 28.365 15.5815C28.3731 14.9804 28.2678 14.3834 28.055 13.8225C27.8561 13.3064 27.5031 12.8665 27.0455 12.5649C26.5548 12.2402 25.9796 12.0728 25.3943 12.0841Z" fill="white"/>
<path d="M49.7285 18.9088C49.6766 19.328 49.5526 20.0985 49.3565 21.2204L48.9541 23.7459C47.3991 24.1319 45.8045 24.3287 44.2038 24.3322C43.2069 24.349 42.2121 24.2337 41.2446 23.9893C40.2509 23.7204 39.3303 23.2257 38.5521 22.5425C37.7607 21.8629 37.1493 20.9926 36.774 20.0111C36.3154 18.7862 36.0893 17.4841 36.1077 16.1736C36.1051 14.8912 36.3253 13.6184 36.7581 12.4138C37.1483 11.2758 37.8074 10.2525 38.6776 9.43388C39.4729 8.6802 40.4403 8.13967 41.4926 7.86108C42.6119 7.58261 43.761 7.44768 44.9133 7.45945C45.6522 7.45981 46.3907 7.49944 47.1255 7.57818C48.0532 7.6902 48.9731 7.86055 49.88 8.08828L49.9117 8.45033C49.9415 8.8285 49.9646 9.21401 49.9809 9.60684C49.9973 9.99968 50.0309 10.6207 50.0819 11.4699L50.1742 12.8697C48.6984 12.3469 47.3933 12.085 46.2588 12.084C45.517 12.0674 44.7822 12.2318 44.1158 12.5634C43.525 12.8604 43.0467 13.3466 42.7545 13.9471C42.4489 14.6029 42.2979 15.3221 42.3132 16.0476C42.2908 16.7456 42.4259 17.4395 42.7083 18.0762C42.9731 18.6234 43.4195 19.0579 43.9687 19.3031C44.566 19.5798 45.2159 19.7194 45.8723 19.7121C46.2897 19.7063 46.7062 19.6696 47.1183 19.6021C47.599 19.5288 48.0167 19.4472 48.3715 19.3573C48.8321 19.235 49.2852 19.0853 49.7285 18.9088Z" fill="white"/>
<path d="M52.1655 23.9261C52.3097 22.6479 52.4174 21.5945 52.4886 20.7658C52.5597 19.9372 52.6289 18.8784 52.6962 17.5895C52.7626 16.2996 52.8217 14.8738 52.8736 13.3123C52.9255 11.7507 52.9664 9.93653 52.9962 7.86975C54.3422 7.89223 55.4161 7.90298 56.2179 7.902C56.9505 7.902 58.0032 7.89125 59.3761 7.86975C59.1992 9.85444 59.0714 11.5943 58.9925 13.0895C58.9137 14.5846 58.8656 16.1735 58.8483 17.8562C58.8079 20.8338 58.7873 22.857 58.7863 23.9261C57.5605 23.9056 56.5029 23.8953 55.6136 23.8953C54.7243 23.8953 53.575 23.9056 52.1655 23.9261ZM53.1404 5.86307C53.2019 4.61421 53.2327 3.62822 53.2327 2.90509C53.2327 2.69548 53.2327 2.41259 53.2183 2.0564C54.4681 2.07887 55.5151 2.08962 56.3592 2.08864C57.5244 2.08864 58.5455 2.07789 59.4223 2.0564C59.3915 2.3818 59.3708 2.65444 59.3603 2.87431L59.2708 4.81796C59.2507 5.11112 59.2406 5.45705 59.2406 5.85575C58.2186 5.83327 57.2384 5.82252 56.3001 5.8235C55.3291 5.8235 54.2758 5.83669 53.1404 5.86307Z" fill="white"/>
<path d="M63.2831 12.446C63.4754 11.4063 63.599 10.6905 63.6538 10.2986C63.7086 9.90677 63.7912 9.29065 63.9018 8.45026C66.8726 7.78967 69.4261 7.45938 71.5624 7.45938C72.6899 7.44802 73.8139 7.5885 74.9052 7.87713C75.9156 8.15465 76.705 8.6027 77.2731 9.22127C77.8413 9.83983 78.125 10.7237 78.124 11.8729C78.124 12.4592 78.0471 13.7784 77.8933 15.8306C77.7394 17.8827 77.6207 20.5773 77.5371 23.9144C76.5266 23.8939 75.5205 23.8836 74.5187 23.8836C73.5477 23.8836 72.5156 23.8939 71.4225 23.9144C71.5628 22.7623 71.7186 20.3823 71.8897 16.7745C71.4994 16.9641 71.1932 17.1004 70.9711 17.1835C70.7504 17.267 70.3611 17.3931 69.8058 17.5617C69.2506 17.7302 68.8151 17.8709 68.5079 17.9853C68.2147 18.0891 67.9385 18.2374 67.6888 18.425C67.487 18.5695 67.3187 18.7571 67.1956 18.9747C67.0974 19.169 67.0478 19.385 67.0514 19.6035C67.05 19.7778 67.0868 19.9501 67.1591 20.1081C67.2315 20.266 67.3375 20.4056 67.4696 20.5167C67.7484 20.7669 68.1921 20.8924 68.8007 20.8934C69.0334 20.8924 69.2657 20.8743 69.4958 20.8392C69.8435 20.776 70.1855 20.6839 70.5183 20.5636C70.2183 21.3708 69.8621 22.5503 69.4496 24.1021C68.6116 24.2483 67.7632 24.3252 66.913 24.3322C65.6333 24.3322 64.5686 24.1514 63.7187 23.7898C62.887 23.4458 62.1942 22.8258 61.7531 22.0309C61.3154 21.2999 61.0775 20.4635 61.0637 19.6079C61.064 19.1141 61.1504 18.6243 61.319 18.1612C61.507 17.658 61.7766 17.1903 62.1165 16.7775C62.4772 16.3273 62.9049 15.9371 63.3841 15.6209C64.0075 15.2378 64.6749 14.934 65.3713 14.7165C66.4206 14.3846 67.4894 14.1202 68.5714 13.925C69.1079 13.8214 69.6006 13.7086 70.0496 13.5864C70.3767 13.507 70.6973 13.4021 71.0086 13.2727C71.1802 13.1967 71.337 13.09 71.4715 12.9576C71.578 12.8563 71.6626 12.7337 71.72 12.5974C71.7773 12.4612 71.8061 12.3143 71.8046 12.1661C71.811 11.9818 71.7684 11.7993 71.6814 11.6375C71.5944 11.4758 71.4661 11.3409 71.31 11.247C70.9793 11.032 70.4947 10.9245 69.8563 10.9245C68.0864 10.9216 65.8953 11.4288 63.2831 12.446Z" fill="white"/>
<path d="M80.6702 23.9263L80.947 20.5433L81.5455 8.7861L81.7143 2.45825C83.1506 2.48073 84.2303 2.49148 84.9533 2.4905C85.8916 2.4905 86.9294 2.47975 88.0668 2.45825L87.7135 7.28659L87.1453 19.1771L87.0227 23.9263C85.9171 23.9175 84.9201 23.9126 84.0317 23.9117L80.6702 23.9263Z" fill="white"/>
<path d="M90.8736 23.9263C91.0659 21.9142 91.3033 18.0665 91.586 12.3831H89.6997C89.7305 12.0577 89.7742 11.3653 89.8309 10.3061C89.8877 9.24677 89.9213 8.48163 89.9319 8.01062H92.1297C92.1181 7.5914 92.1138 7.22935 92.1138 6.92446C92.0983 6.16678 92.1465 5.40913 92.258 4.6598C92.3375 4.16192 92.522 3.6874 92.7988 3.26876C93.0969 2.85237 93.4764 2.50305 93.9136 2.2427C94.4122 1.93706 94.964 1.73155 95.5389 1.63733C96.1583 1.53177 96.7855 1.47931 97.4136 1.48049C98.0627 1.48373 98.7112 1.52288 99.3561 1.59775C100.2 1.70646 101.036 1.87744 101.855 2.10932C101.885 3.77642 101.952 5.16062 102.056 6.26192C101.035 5.88375 100.117 5.69466 99.3028 5.69466C98.7461 5.69466 98.3106 5.82609 97.9962 6.08896C97.6818 6.35182 97.5242 6.83407 97.5232 7.5357L97.5391 8.00769H101.097C101.014 9.21257 100.932 10.6701 100.85 12.3802H97.6386L97.1281 23.9233C95.8994 23.9028 94.8466 23.8925 93.9698 23.8925C93.093 23.8925 92.0609 23.9038 90.8736 23.9263Z" fill="white"/>
<path d="M102.333 23.9261C102.477 22.6479 102.585 21.5945 102.656 20.7658C102.727 19.9372 102.796 18.8784 102.863 17.5895C102.932 16.2996 102.991 14.8738 103.041 13.3123C103.091 11.7507 103.132 9.93653 103.163 7.86975C104.509 7.89223 105.583 7.90298 106.385 7.902C107.118 7.902 108.17 7.89125 109.543 7.86975C109.366 9.85444 109.241 11.5943 109.168 13.0895C109.095 14.5846 109.047 16.1735 109.024 17.8562C108.983 20.8338 108.962 22.857 108.961 23.9261C107.735 23.9056 106.677 23.8953 105.788 23.8953C104.899 23.8953 103.747 23.9056 102.333 23.9261ZM103.308 5.86307C103.369 4.61421 103.4 3.62822 103.401 2.90509C103.401 2.69548 103.401 2.41259 103.386 2.0564C104.635 2.07887 105.682 2.08962 106.526 2.08864C107.692 2.08864 108.713 2.07789 109.591 2.0564C109.559 2.3818 109.539 2.65444 109.529 2.87431L109.435 4.82529C109.415 5.11845 109.405 5.46438 109.405 5.86307C108.384 5.8406 107.404 5.82985 106.464 5.83083C105.495 5.82594 104.443 5.83669 103.308 5.86307Z" fill="white"/>
<path d="M110.322 23.9262L113.85 19.1609L116.464 15.5125L111.61 7.86841C113.118 7.89088 114.412 7.90163 115.494 7.90066C116.856 7.90066 117.976 7.88991 118.852 7.86841L120.492 11.4699C120.596 11.6912 120.744 12.0313 120.941 12.4959C121.735 11.1122 122.674 9.57069 123.757 7.87134C124.675 7.89382 125.774 7.90456 127.054 7.90359C128.239 7.90359 129.368 7.89284 130.441 7.87134L127.967 11.1709C127.481 11.8217 126.444 13.2479 124.856 15.4495C125.805 17.1156 127.538 19.9412 130.055 23.9262C128.89 23.9038 127.739 23.8925 126.604 23.8925C125.222 23.8925 123.984 23.9028 122.89 23.9233C122.217 22.4575 121.704 21.3723 121.352 20.6678C120.999 19.9632 120.697 19.3187 120.446 18.7344L119.951 19.5992C119.796 19.8601 119.558 20.2481 119.239 20.763L117.273 23.9262C116.16 23.9057 115.077 23.8954 114.024 23.8954C112.806 23.8935 111.572 23.9038 110.322 23.9262Z" fill="white"/>
</svg>
