<svg width="94" height="18" viewBox="0 0 94 18" fill="none" xmlns="http://www.w3.org/2000/svg">
<path d="M0.321919 16.6008C0.29126 16.2719 0.261298 15.926 0.232032 15.563C0.202767 15.2 0.155037 14.7029 0.0888412 14.0717L0 13.2638C0.609567 13.5082 1.23245 13.7179 1.86567 13.8919C2.33574 14.0237 2.82092 14.094 3.30908 14.1009C3.609 14.1081 3.90844 14.073 4.19853 13.9964C4.39018 13.9514 4.56387 13.8498 4.69709 13.7049C4.79414 13.5969 4.8497 13.458 4.85387 13.313C4.85119 13.186 4.81 13.0628 4.73576 12.9597C4.58364 12.7752 4.40466 12.6145 4.2048 12.4832C3.59372 12.0338 3.05509 11.6262 2.58894 11.2604C2.20584 10.9724 1.85349 10.6457 1.53748 10.2854C1.30811 10.0121 1.12617 9.70226 0.999203 9.36883C0.878817 9.04161 0.818277 8.6954 0.820475 8.34674C0.820325 7.72715 1.006 7.12176 1.35352 6.60878C1.70819 6.07021 2.23079 5.6797 2.92131 5.43724C3.61183 5.19478 4.4546 5.07321 5.44963 5.07251C6.48855 5.07251 7.81559 5.20698 9.43076 5.47591L9.6074 8.61637C8.77854 8.27251 7.89171 8.08984 6.99442 8.07816C6.40423 8.07816 5.97605 8.13877 5.70988 8.26C5.44545 8.38227 5.31271 8.56725 5.31271 8.81807C5.31205 8.89923 5.32695 8.97976 5.3566 9.05531C5.39728 9.14307 5.45399 9.22247 5.52383 9.2894C5.61384 9.38135 5.71138 9.4656 5.81544 9.54127C5.93111 9.62696 6.21331 9.82692 6.66205 10.1411C7.11078 10.4554 7.46232 10.7131 7.71665 10.9145C8.07022 11.1815 8.39182 11.4883 8.67509 11.8289C8.89006 12.099 9.06049 12.4017 9.17991 12.7256C9.29644 13.0476 9.35517 13.3876 9.35341 13.7299C9.35821 14.2435 9.22463 14.7489 8.96669 15.1931C8.68393 15.6621 8.28132 16.0473 7.80026 16.3092C7.27676 16.6114 6.70613 16.8234 6.11228 16.9362C5.49324 17.051 4.86469 17.1067 4.23511 17.1024C3.68977 17.0973 3.14511 17.0624 2.60357 16.9979C1.94928 16.9206 1.18873 16.7882 0.321919 16.6008Z" fill="black"/>
<path d="M17.9442 5.07253C18.8531 5.07061 19.7563 5.21566 20.6188 5.50206C21.4197 5.75431 22.1589 6.17155 22.7886 6.72689C23.3647 7.24031 23.8122 7.88177 24.0951 8.59967C24.3782 9.33284 24.5201 10.1129 24.5132 10.8988C24.5171 11.6751 24.3899 12.4464 24.1369 13.1803C23.8666 13.9415 23.4352 14.6355 22.8723 15.215C22.24 15.8685 21.4563 16.356 20.5906 16.6342C18.7527 17.2421 16.7709 17.2614 14.9215 16.6896C14.1108 16.45 13.3619 16.0371 12.7266 15.4794C12.1438 14.9546 11.6909 14.3017 11.4034 13.5722C11.1064 12.8308 10.9549 12.0392 10.9571 11.2406C10.954 10.4429 11.1004 9.65173 11.3887 8.90797C11.69 8.14881 12.1575 7.46676 12.7569 6.91187C13.4228 6.29847 14.2126 5.83517 15.073 5.55327C15.9964 5.23352 16.967 5.07102 17.9442 5.07253ZM17.8658 8.36975C17.4039 8.35727 16.9498 8.49087 16.5683 8.75151C16.1867 9.01216 15.8972 9.38656 15.7409 9.82137C15.5452 10.3155 15.4469 10.8429 15.4514 11.3744C15.4514 12.1972 15.657 12.827 16.0681 13.2639C16.2643 13.4773 16.504 13.6463 16.771 13.7595C17.038 13.8727 17.3261 13.9275 17.616 13.9202C18.0671 13.9283 18.5101 13.7989 18.8859 13.5492C19.2773 13.2764 19.5733 12.8879 19.7325 12.4382C19.9261 11.9359 20.0232 11.4016 20.0189 10.8633C20.0247 10.4348 19.9484 10.0091 19.7942 9.60922C19.65 9.2412 19.3942 8.92762 19.0625 8.71254C18.7069 8.48108 18.29 8.36167 17.8658 8.36975Z" fill="black"/>
<path d="M35.5015 13.2354C35.4639 13.5343 35.374 14.0836 35.2318 14.8835L34.9402 16.6842C33.8132 16.9593 32.6575 17.0996 31.4974 17.1022C30.7749 17.1141 30.0539 17.0319 29.3526 16.8576C28.6325 16.6659 27.9652 16.3132 27.4013 15.8261C26.8276 15.3416 26.3846 14.7211 26.1125 14.0213C25.7801 13.148 25.6163 12.2196 25.6297 11.2853C25.6278 10.371 25.7874 9.46349 26.101 8.60465C26.3838 7.79325 26.8615 7.06367 27.4922 6.48C28.0686 5.94265 28.7698 5.55726 29.5324 5.35863C30.3436 5.16009 31.1765 5.06389 32.0116 5.07228C32.5472 5.07254 33.0823 5.1008 33.6149 5.15693C34.2872 5.2368 34.954 5.35826 35.6112 5.52062L35.6342 5.77876C35.6558 6.04839 35.6726 6.32324 35.6844 6.60332C35.6962 6.8834 35.7206 7.32617 35.7576 7.93162L35.8245 8.92967C34.7549 8.55692 33.809 8.3702 32.9868 8.36951C32.4492 8.35764 31.9166 8.47483 31.4336 8.71125C31.0054 8.92302 30.6587 9.26967 30.4469 9.6978C30.2255 10.1654 30.116 10.6781 30.1271 11.1954C30.1109 11.6931 30.2088 12.1878 30.4135 12.6418C30.6054 13.0319 30.9289 13.3417 31.327 13.5165C31.7599 13.7138 32.2309 13.8134 32.7067 13.8081C33.0092 13.804 33.311 13.7778 33.6097 13.7297C33.9581 13.6775 34.2609 13.6193 34.518 13.5552C34.8518 13.468 35.1802 13.3612 35.5015 13.2354Z" fill="black"/>
<path d="M37.2695 16.8128C37.3741 15.9015 37.4521 15.1504 37.5037 14.5596C37.5552 13.9688 37.6054 13.2139 37.6542 12.2949C37.7022 11.3752 37.7451 10.3587 37.7827 9.24538C37.8203 8.13202 37.85 6.83856 37.8716 5.365C38.8471 5.38102 39.6254 5.38869 40.2065 5.38799C40.7375 5.38799 41.5005 5.38033 42.4955 5.365C42.3673 6.78004 42.2746 8.02054 42.2175 9.08652C42.1603 10.1525 42.1255 11.2854 42.1129 12.4851C42.0837 14.608 42.0687 16.0506 42.068 16.8128C41.1796 16.7982 40.4131 16.7908 39.7686 16.7908C39.124 16.7908 38.291 16.7982 37.2695 16.8128ZM37.9761 3.93429C38.0207 3.04388 38.043 2.34089 38.043 1.82532C38.043 1.67587 38.043 1.47417 38.0325 1.22021C38.9384 1.23624 39.6972 1.2439 40.3089 1.24321C41.1535 1.24321 41.8935 1.23554 42.5289 1.22021C42.5066 1.45222 42.4917 1.64661 42.484 1.80337L42.4192 3.18914C42.4046 3.39816 42.3972 3.6448 42.3972 3.92906C41.6565 3.91304 40.9462 3.90537 40.2661 3.90607C39.5623 3.90607 38.799 3.91547 37.9761 3.93429Z" fill="black"/>
<path d="M45.3273 8.62784C45.4667 7.88653 45.5562 7.37618 45.5959 7.09679C45.6356 6.81741 45.6956 6.37813 45.7757 5.77895C47.9288 5.30797 49.7795 5.07248 51.3277 5.07248C52.1449 5.06438 52.9596 5.16453 53.7505 5.37032C54.4828 5.56819 55.0549 5.88764 55.4667 6.32866C55.8785 6.76968 56.0841 7.39987 56.0834 8.21921C56.0834 8.63724 56.0276 9.57781 55.9161 11.0409C55.8047 12.504 55.7186 14.4252 55.658 16.8045C54.9256 16.7899 54.1964 16.7826 53.4704 16.7826C52.7666 16.7826 52.0186 16.7899 51.2264 16.8045C51.3281 15.9831 51.441 14.2862 51.565 11.714C51.2821 11.8491 51.0602 11.9463 50.8992 12.0055C50.7393 12.0651 50.4571 12.155 50.0547 12.2752C49.6523 12.3953 49.3367 12.4957 49.114 12.5772C48.9015 12.6512 48.7013 12.7569 48.5204 12.8907C48.3741 12.9938 48.2521 13.1275 48.1629 13.2826C48.0917 13.4212 48.0558 13.5752 48.0584 13.731C48.0574 13.8552 48.084 13.9781 48.1365 14.0907C48.1889 14.2033 48.2658 14.3029 48.3615 14.382C48.5636 14.5604 48.8851 14.6499 49.3262 14.6506C49.4948 14.6499 49.6632 14.637 49.83 14.612C50.082 14.5669 50.3298 14.5012 50.571 14.4155C50.3536 14.991 50.0955 15.8319 49.7965 16.9383C49.1891 17.0426 48.5743 17.0974 47.958 17.1024C47.0306 17.1024 46.2589 16.9735 45.6429 16.7157C45.0402 16.4704 44.5381 16.0284 44.2184 15.4616C43.9012 14.9404 43.7287 14.3441 43.7188 13.7341C43.7189 13.382 43.7816 13.0328 43.9037 12.7026C44.04 12.3438 44.2354 12.0104 44.4817 11.716C44.7432 11.3951 45.0532 11.1169 45.4005 10.8915C45.8523 10.6183 46.336 10.4017 46.8407 10.2467C47.6012 10.01 48.3758 9.82148 49.16 9.68232C49.5488 9.60847 49.9059 9.528 50.2313 9.44091C50.4684 9.38428 50.7008 9.30951 50.9264 9.21726C51.0508 9.16306 51.1644 9.08695 51.2619 8.99257C51.3391 8.92039 51.4004 8.83294 51.442 8.73579C51.4835 8.63863 51.5044 8.53389 51.5033 8.42823C51.508 8.29688 51.4771 8.16671 51.414 8.0514C51.3509 7.93609 51.258 7.83991 51.1448 7.77296C50.9051 7.61968 50.554 7.54304 50.0913 7.54304C48.8085 7.54095 47.2205 7.90255 45.3273 8.62784Z" fill="black"/>
<path d="M57.9297 16.8128L58.1304 14.4008L58.5641 6.0182L58.6864 1.50659C59.7274 1.52262 60.5099 1.53028 61.0339 1.52958C61.714 1.52958 62.4662 1.52192 63.2905 1.50659L63.0344 4.94908L62.6226 13.4268L62.5337 16.8128C61.7324 16.8065 61.0099 16.8031 60.366 16.8024L57.9297 16.8128Z" fill="black"/>
<path d="M65.3234 16.8129C65.4628 15.3783 65.6349 12.635 65.8398 8.58288H64.4727C64.495 8.35087 64.5267 7.85725 64.5678 7.10201C64.6089 6.34676 64.6333 5.80123 64.6409 5.46541H66.2338C66.2254 5.16652 66.2223 4.90838 66.2223 4.69101C66.211 4.1508 66.246 3.61061 66.3268 3.07636C66.3845 2.72138 66.5182 2.38306 66.7188 2.08458C66.9348 1.7877 67.2099 1.53865 67.5267 1.35303C67.8881 1.13511 68.288 0.988586 68.7046 0.921408C69.1536 0.846148 69.6081 0.808742 70.0634 0.809584C70.5338 0.811898 71.0038 0.839808 71.4713 0.89319C72.0831 0.970699 72.6884 1.0926 73.2826 1.25792C73.3042 2.44653 73.3526 3.43343 73.4279 4.21863C72.6879 3.949 72.0228 3.81419 71.4326 3.81419C71.0291 3.81419 70.7135 3.9079 70.4856 4.09531C70.2578 4.28273 70.1435 4.62656 70.1428 5.12681L70.1543 5.46332H72.7328C72.6729 6.32238 72.6133 7.36153 72.5541 8.58079H70.2264L69.8564 16.8108C68.9659 16.7962 68.2029 16.7888 67.5675 16.7888C66.932 16.7888 66.184 16.7969 65.3234 16.8129Z" fill="black"/>
<path d="M73.6289 16.8128C73.7334 15.9015 73.8115 15.1504 73.863 14.5596C73.9146 13.9688 73.9648 13.2139 74.0135 12.2949C74.063 11.3752 74.1059 10.3587 74.1421 9.24538C74.1783 8.13202 74.2079 6.83856 74.2309 5.365C75.2064 5.38102 75.9848 5.38869 76.5659 5.38799C77.0969 5.38799 77.8598 5.38033 78.8549 5.365C78.7267 6.78004 78.6361 8.02054 78.5831 9.08652C78.5302 10.1525 78.4953 11.2854 78.4786 12.4851C78.4486 14.608 78.4333 16.0506 78.4326 16.8128C77.5442 16.7982 76.7777 16.7908 76.1332 16.7908C75.4887 16.7908 74.6539 16.7982 73.6289 16.8128ZM74.3355 3.93429C74.3801 3.04388 74.4027 2.34089 74.4034 1.82532C74.4034 1.67587 74.4034 1.47417 74.3919 1.22021C75.2977 1.23624 76.0565 1.2439 76.6683 1.24321C77.5128 1.24321 78.2532 1.23554 78.8894 1.22021C78.8664 1.45222 78.8514 1.64661 78.8444 1.80337L78.7765 3.19437C78.7618 3.40338 78.7545 3.65002 78.7545 3.93429C78.0145 3.91826 77.3041 3.9106 76.6234 3.91129C75.921 3.90781 75.1584 3.91547 74.3355 3.93429Z" fill="black"/>
<path d="M79.418 16.8129L81.9745 13.4153L83.8694 10.8141L80.3513 5.36401C81.4439 5.38004 82.3821 5.3877 83.166 5.38701C84.1534 5.38701 84.9648 5.37934 85.6003 5.36401L86.7887 7.93177C86.8639 8.08958 86.9716 8.33204 87.1137 8.66333C87.6893 7.67677 88.3697 6.5777 89.155 5.3661C89.8204 5.38213 90.6168 5.38979 91.5443 5.3891C92.4034 5.3891 93.2218 5.38143 93.9994 5.3661L92.2059 7.71858C91.854 8.18259 91.1025 9.19945 89.9514 10.7692C90.6391 11.9571 91.8951 13.9716 93.7193 16.8129C92.8748 16.7968 92.0411 16.7888 91.2182 16.7888C90.2169 16.7888 89.3198 16.7961 88.5268 16.8108C88.0391 15.7657 87.6673 14.992 87.4116 14.4896C87.1559 13.9873 86.9371 13.5278 86.7552 13.1112L86.3967 13.7278C86.2838 13.9138 86.1117 14.1904 85.8804 14.5576L84.4558 16.8129C83.6489 16.7982 82.864 16.7909 82.101 16.7909C81.2181 16.7895 80.3238 16.7968 79.418 16.8129Z" fill="black"/>
</svg>
