<svg width="32" height="32" viewBox="0 0 32 32" fill="none" xmlns="http://www.w3.org/2000/svg">
<path d="M29.8233 8.50327C28.8011 8.95764 27.701 9.26414 26.5467 9.4013C27.7252 8.69574 28.6289 7.57814 29.0551 6.24493C27.9527 6.89912 26.7324 7.37382 25.4325 7.63007C24.3922 6.52151 22.9094 5.82837 21.2686 5.82837C18.1184 5.82837 15.5643 8.38248 15.5643 11.5332C15.5643 11.9797 15.6145 12.4149 15.7122 12.8331C10.9709 12.5949 6.76688 10.3242 3.95313 6.87259C3.46207 7.71474 3.18097 8.69461 3.18097 9.74109C3.18097 11.72 4.18794 13.4664 5.71871 14.4892C4.78399 14.4593 3.90402 14.2025 3.13469 13.7752C3.13412 13.7989 3.13412 13.8231 3.13412 13.8474C3.13412 16.6109 5.10064 18.9161 7.71063 19.4411C7.23198 19.5709 6.72794 19.6409 6.20752 19.6409C5.8395 19.6409 5.48221 19.6053 5.13395 19.5381C5.86039 21.8044 7.96689 23.4542 10.4629 23.5C8.51045 25.0302 6.05117 25.9423 3.37796 25.9423C2.91794 25.9423 2.46356 25.9152 2.01709 25.8622C4.54241 27.4816 7.54073 28.4253 10.762 28.4253C21.2556 28.4253 26.9932 19.7329 26.9932 12.1942C26.9932 11.9469 26.9881 11.7003 26.9773 11.4553C28.0916 10.6527 29.059 9.64739 29.8233 8.50327Z" fill="#5E6E7B"/>
</svg>
