<svg width="32" height="32" viewBox="0 0 32 32" fill="none" xmlns="http://www.w3.org/2000/svg">
<path d="M16.0753 4.55549C13.6293 4.50424 11.2631 5.42633 9.49677 7.11908C7.73043 8.81182 6.70852 11.1367 6.65569 13.5826C6.58795 14.5579 6.79381 15.5327 7.2501 16.3974C7.70639 17.262 8.39498 17.9821 9.23836 18.4765C9.33489 18.5345 9.44374 18.5688 9.55605 18.5768C9.66837 18.5847 9.78097 18.566 9.88469 18.5222C9.98841 18.4784 10.0803 18.4107 10.1529 18.3246C10.2255 18.2386 10.2768 18.1366 10.3025 18.0269L10.5595 16.9296C10.591 16.8118 10.5899 16.6877 10.5562 16.5705C10.5226 16.4533 10.4577 16.3475 10.3686 16.2643C9.95775 15.8514 9.65364 15.3447 9.48249 14.788C9.31135 14.2313 9.27833 13.6413 9.38628 13.0689C9.53858 11.4104 10.3017 9.86762 11.5274 8.74006C12.7532 7.6125 14.3542 6.9806 16.0196 6.967C20.18 6.89343 22.6978 9.497 21.8364 14.5219C20.9225 19.8533 16.5332 21.0038 15.4938 18.1129C15.3394 17.583 15.3526 17.0184 15.5315 16.4963C15.7701 15.67 16.1841 14.3739 16.3864 13.6554C16.8649 11.9564 16.6964 10.3811 15.1502 10.0013C13.9517 9.70692 12.7435 10.5163 12.2206 12.3549C11.9634 13.4496 12.0694 14.5982 12.5224 15.6273L10.6925 23.2066C10.5641 23.7386 10.5111 24.286 10.5352 24.8327L10.6976 28.5162C10.7007 28.5852 10.7264 28.6512 10.7707 28.7042C10.8151 28.7571 10.8756 28.794 10.943 28.8092C11.0104 28.8243 11.0809 28.8168 11.1436 28.7879C11.2063 28.7591 11.2578 28.7103 11.2901 28.6493L13.0633 25.2915C13.2763 24.8881 13.4413 24.4612 13.5548 24.0195L14.5033 20.3291C17.6478 24.3747 24.2615 21.1229 25.1697 15.0405C26.2008 8.13441 22.2429 4.61151 16.0753 4.55549Z" fill="#5E6E7B"/>
</svg>
