<svg width="32" height="32" viewBox="0 0 32 32" fill="none" xmlns="http://www.w3.org/2000/svg">
<path d="M29.3341 18.6882C29.3341 13.1046 25.8665 11.9554 23.355 11.9554C22.5339 11.9044 21.7113 12.0301 20.9429 12.3239C20.1744 12.6177 19.4779 13.0728 18.9002 13.6585C18.3225 14.2443 17.877 14.9471 17.5939 15.7195C17.3107 16.4919 17.1964 17.3161 17.2587 18.1365C17.2587 23.169 20.0085 24.8231 23.5947 24.8231C24.831 24.8972 26.0562 24.5518 27.0717 23.8429C28.0873 23.134 28.8339 22.103 29.1906 20.9169H25.7467C25.5744 21.3377 25.2735 21.6932 24.887 21.9326C24.5004 22.1719 24.0481 22.2829 23.5947 22.2495C23.1987 22.2869 22.7994 22.2376 22.4245 22.1051C22.0495 21.9725 21.7079 21.7599 21.4234 21.4821C21.139 21.2042 20.9184 20.8677 20.7771 20.496C20.6357 20.1243 20.577 19.7262 20.6051 19.3295H29.3341V18.6882ZM20.7012 17.3338C20.8922 15.7252 21.7299 14.5979 23.3076 14.5979C24.0105 14.6252 24.6746 14.9271 25.1575 15.4386C25.6403 15.9501 25.9034 16.6305 25.8902 17.3338H20.7012Z" fill="black"/>
<path d="M26.6667 8.78125H20V10.6671H26.6667V8.78125Z" fill="black"/>
<path d="M13.7429 15.6083C14.3985 15.3378 14.9494 14.863 15.3137 14.2545C15.6781 13.646 15.8364 12.9362 15.7653 12.2306C15.7653 10.5302 14.7314 8.00293 10.6865 8.00293H2.66797V24.5008H9.65258C13.0304 24.5008 13.9264 23.9263 14.8693 23.0075C15.3196 22.5626 15.6773 22.0331 15.9219 21.4493C16.1665 20.8655 16.2931 20.2391 16.2944 19.6061C16.3768 18.7505 16.1704 17.8919 15.7079 17.1673C15.2455 16.4427 14.5537 15.8939 13.7429 15.6083ZM6.0013 10.6663H10.668C11.1984 10.6663 11.7071 10.8771 12.0822 11.2521C12.4573 11.6272 12.668 12.1359 12.668 12.6663C12.668 13.1968 12.4573 13.7055 12.0822 14.0806C11.7071 14.4556 11.1984 14.6663 10.668 14.6663H6.0013V10.6663ZM11.0013 21.333H6.0013V17.333H11.0013C11.5317 17.333 12.0404 17.5437 12.4155 17.9188C12.7906 18.2939 13.0013 18.8026 13.0013 19.333C13.0013 19.8634 12.7906 20.3722 12.4155 20.7472C12.0404 21.1223 11.5317 21.333 11.0013 21.333Z" fill="black"/>
</svg>
