<svg xmlns="http://www.w3.org/2000/svg" viewBox="0 0 64 224"><defs><style>.a{fill:#5e6e7b;}</style></defs><title>soc-i</title><path d="M29.56,18.18c0-5.58-3.47-6.73-6-6.73a5.67,5.67,0,0,0-2.41.37,5.76,5.76,0,0,0-3.35,3.39,5.69,5.69,0,0,0-.33,2.42c0,5,2.75,6.69,6.33,6.69a5.59,5.59,0,0,0,3.48-1,5.5,5.5,0,0,0,2.12-2.93H26a2.13,2.13,0,0,1-2.15,1.33A2.69,2.69,0,0,1,21.65,21,2.69,2.69,0,0,1,21,20a2.59,2.59,0,0,1-.18-1.17h8.73Zm-8.63-1.35c.19-1.61,1-2.74,2.61-2.74a2.68,2.68,0,0,1,2.58,2.74Z"/><path d="M26.89,8.27H20.23v1.89h6.66Z"/><path d="M14,15.1a3.24,3.24,0,0,0,1.57-1.35,3.28,3.28,0,0,0,.45-2C16,10,15,7.5,10.91,7.5h-8V24h7c3.38,0,4.27-.57,5.22-1.49a4.62,4.62,0,0,0,1-1.56,4.84,4.84,0,0,0,.37-1.84,3.86,3.86,0,0,0-.58-2.44A3.94,3.94,0,0,0,14,15.1ZM6.23,10.16H10.9a2,2,0,0,1,2,2,2,2,0,0,1-2,2H6.23Zm5,10.67h-5v-4h5a2,2,0,0,1,0,4Z"/><path class="a" d="M61.56,18.18c0-5.58-3.47-6.73-6-6.73a5.67,5.67,0,0,0-2.41.37,5.76,5.76,0,0,0-3.35,3.39,5.69,5.69,0,0,0-.33,2.42c0,5,2.75,6.69,6.33,6.69a5.59,5.59,0,0,0,3.48-1,5.5,5.5,0,0,0,2.12-2.93H58a2.13,2.13,0,0,1-2.15,1.33A2.69,2.69,0,0,1,53.65,21,2.85,2.85,0,0,1,53,20a2.73,2.73,0,0,1-.17-1.17h8.73Zm-8.63-1.35c.19-1.61,1-2.74,2.61-2.74a2.68,2.68,0,0,1,2.58,2.74Z"/><path class="a" d="M58.9,8.27H52.23v1.89H58.9Z"/><path class="a" d="M46,15.1a3.24,3.24,0,0,0,1.57-1.35,3.28,3.28,0,0,0,.45-2C48,10,47,7.5,42.91,7.5h-8V24h7c3.38,0,4.27-.57,5.22-1.49a4.62,4.62,0,0,0,1-1.56,4.84,4.84,0,0,0,.37-1.84,3.86,3.86,0,0,0-.58-2.44A3.94,3.94,0,0,0,46,15.1Zm-7.74-4.94H42.9a2,2,0,0,1,0,4H38.23Zm5,10.67h-5v-4h5a2,2,0,0,1,2,2,2,2,0,0,1-2,2Z"/><path d="M18.23,43.68V41.29c0-1.07.24-1.61,1.91-1.61h2.09v-4H18.74c-4.29,0-5.7,2-5.7,5.33v2.67H10.23v4H13v12h5.19v-12h3.52l.48-4Z"/><path class="a" d="M50.23,43.68V41.29c0-1.07.24-1.61,1.91-1.61h2.09v-4H50.74c-4.29,0-5.7,2-5.7,5.33v2.67H42.23v4H45v12h5.19v-12h3.52l.48-4Z"/><path d="M20.67,68H11.33A7.34,7.34,0,0,0,4,75.33v9.34A7.34,7.34,0,0,0,11.33,92h9.34A7.34,7.34,0,0,0,28,84.67V75.33A7.34,7.34,0,0,0,20.67,68ZM26,84.67A5.33,5.33,0,0,1,20.67,90H11.33A5.33,5.33,0,0,1,6,84.67V75.33A5.33,5.33,0,0,1,11.33,70h9.34A5.33,5.33,0,0,1,26,75.33Z"/><path d="M16,74a6,6,0,1,0,4.24,1.76A6,6,0,0,0,16,74Zm0,10a4,4,0,0,1-2.22-.67,4.07,4.07,0,0,1-1.48-1.8,4,4,0,0,1,5.23-5.23,4.07,4.07,0,0,1,1.8,1.48A4,4,0,0,1,16,84Z"/><path d="M22.27,75.07a1.34,1.34,0,1,0-1.34-1.34A1.34,1.34,0,0,0,22.27,75.07Z"/><path class="a" d="M52.67,68H43.33A7.34,7.34,0,0,0,36,75.33v9.34A7.34,7.34,0,0,0,43.33,92h9.34A7.34,7.34,0,0,0,60,84.67V75.33A7.34,7.34,0,0,0,52.67,68ZM58,84.67A5.33,5.33,0,0,1,52.67,90H43.33A5.33,5.33,0,0,1,38,84.67V75.33A5.33,5.33,0,0,1,43.33,70h9.34A5.33,5.33,0,0,1,58,75.33Z"/><path class="a" d="M48,74a6,6,0,1,0,4.24,1.76A6,6,0,0,0,48,74Zm0,10a4,4,0,0,1-2.22-.67,4.07,4.07,0,0,1-1.48-1.8,4,4,0,0,1,5.23-5.23,4.07,4.07,0,0,1,1.8,1.48A4,4,0,0,1,48,84Z"/><path class="a" d="M54.27,75.07a1.34,1.34,0,1,0-1.34-1.34A1.34,1.34,0,0,0,54.27,75.07Z"/><path d="M9.56,109H4.23v14.66H9.56Z"/><path d="M6.9,106.28a2.67,2.67,0,1,0-2.67-2.67A2.67,2.67,0,0,0,6.9,106.28Z"/><path d="M22.23,108a5.79,5.79,0,0,0-2.59.6,5.92,5.92,0,0,0-2.08,1.67V109H12.23v14.66h5.33v-9.33a2.67,2.67,0,0,1,5.34,0v9.33h5.33V114a6,6,0,0,0-6-6Z"/><path class="a" d="M41.56,109H36.23v14.66h5.33Z"/><path class="a" d="M38.9,106.28a2.67,2.67,0,1,0-2.67-2.67A2.67,2.67,0,0,0,38.9,106.28Z"/><path class="a" d="M54.23,108a5.79,5.79,0,0,0-2.59.6,5.92,5.92,0,0,0-2.08,1.67V109H44.23v14.66h5.33v-9.33a2.67,2.67,0,0,1,5.34,0v9.33h5.33V114a6,6,0,0,0-6-6Z"/><path d="M15.91,132.44a9.24,9.24,0,0,0-9.42,9,5.31,5.31,0,0,0,.59,2.82,5.38,5.38,0,0,0,2,2.08.92.92,0,0,0,.32.1.75.75,0,0,0,.33-.06.66.66,0,0,0,.27-.2.73.73,0,0,0,.15-.29l.25-1.1a.63.63,0,0,0,0-.36.67.67,0,0,0-.19-.31,3.6,3.6,0,0,1-1-3.19,6.71,6.71,0,0,1,6.63-6.1c4.16-.08,6.68,2.53,5.82,7.55-.91,5.33-5.3,6.48-6.34,3.59a2.61,2.61,0,0,1,0-1.61c.23-.83.65-2.13.85-2.85.48-1.69.31-3.27-1.24-3.65-1.19-.29-2.4.52-2.92,2.35a5.13,5.13,0,0,0,.3,3.28l-1.83,7.58a5.91,5.91,0,0,0-.16,1.62l.16,3.69a.33.33,0,0,0,.08.18.28.28,0,0,0,.17.11.34.34,0,0,0,.2,0,.32.32,0,0,0,.14-.14l1.78-3.36a5.76,5.76,0,0,0,.49-1.27l.95-3.69c3.14,4,9.76.79,10.66-5.29C26,136,22.08,132.5,15.91,132.44Z"/><path class="a" d="M47.91,132.44a9.24,9.24,0,0,0-9.42,9,5.31,5.31,0,0,0,.59,2.82,5.38,5.38,0,0,0,2,2.08.92.92,0,0,0,.32.1.75.75,0,0,0,.33-.06.73.73,0,0,0,.42-.49l.25-1.1a.63.63,0,0,0,0-.36.67.67,0,0,0-.19-.31,3.6,3.6,0,0,1-1-3.19,6.71,6.71,0,0,1,6.63-6.1c4.16-.08,6.68,2.53,5.82,7.55-.91,5.33-5.3,6.48-6.34,3.59a2.61,2.61,0,0,1,0-1.61c.23-.83.65-2.13.85-2.85.48-1.69.31-3.27-1.24-3.65-1.19-.29-2.4.52-2.92,2.35a5.13,5.13,0,0,0,.3,3.28l-1.83,7.58a5.91,5.91,0,0,0-.16,1.62l.16,3.69a.33.33,0,0,0,.08.18.28.28,0,0,0,.17.11.34.34,0,0,0,.2,0,.32.32,0,0,0,.14-.14l1.78-3.36a5.76,5.76,0,0,0,.49-1.27l1-3.69c3.14,4,9.76.79,10.66-5.29C58,136,54.08,132.5,47.91,132.44Z"/><path d="M29.69,167.42a11.54,11.54,0,0,1-3.28.9,5.76,5.76,0,0,0,2.51-3.16,11.58,11.58,0,0,1-3.62,1.39,5.7,5.7,0,0,0-9.87,3.9,5.64,5.64,0,0,0,.15,1.3,16.21,16.21,0,0,1-11.76-6,5.71,5.71,0,0,0,1.76,7.61A5.65,5.65,0,0,1,3,172.69v.07a5.72,5.72,0,0,0,4.58,5.6,5.79,5.79,0,0,1-1.51.2A5.39,5.39,0,0,1,5,178.45a5.72,5.72,0,0,0,5.33,4,11.44,11.44,0,0,1-7.09,2.44,12.26,12.26,0,0,1-1.36-.08,16.17,16.17,0,0,0,8.75,2.56c10.49,0,16.23-8.69,16.23-16.23,0-.25,0-.49,0-.74A11.59,11.59,0,0,0,29.69,167.42Z"/><path class="a" d="M61.69,167.66a11.22,11.22,0,0,1-3.28.9,5.69,5.69,0,0,0,2.51-3.16,11.34,11.34,0,0,1-3.62,1.39,5.71,5.71,0,0,0-9.87,3.9,5.57,5.57,0,0,0,.15,1.3,16.21,16.21,0,0,1-11.76-6,5.73,5.73,0,0,0,1.76,7.62,5.66,5.66,0,0,1-2.58-.72V173a5.71,5.71,0,0,0,4.58,5.59,5.79,5.79,0,0,1-1.51.2,6.26,6.26,0,0,1-1.07-.1,5.72,5.72,0,0,0,5.33,4,11.44,11.44,0,0,1-7.09,2.44,12.26,12.26,0,0,1-1.36-.08,16.17,16.17,0,0,0,8.75,2.56c10.49,0,16.23-8.69,16.23-16.23,0-.24,0-.49,0-.74A11.42,11.42,0,0,0,61.69,167.66Z"/><path d="M29,202.37A3.75,3.75,0,0,0,28,200.06,3.69,3.69,0,0,0,25.64,199c-2.09-.18-5.19-.36-9-.36-4.6,0-8.08.19-10.32.37a3.73,3.73,0,0,0-3.42,3.39c-.14,1.44-.26,3.35-.26,5.63s.12,4.1.26,5.53a3.71,3.71,0,0,0,3.42,3.38c2.24.18,5.72.37,10.32.37,3.82,0,6.92-.18,9-.36A3.69,3.69,0,0,0,28,215.87,3.75,3.75,0,0,0,29,213.56c.14-1.44.26-3.34.26-5.59S29.18,203.81,29,202.37Zm-16,9.51v-7.83L20.73,208Z"/><path class="a" d="M61,202.37A3.75,3.75,0,0,0,60,200.06,3.69,3.69,0,0,0,57.64,199c-2.09-.18-5.19-.36-9-.36-4.6,0-8.08.19-10.32.37a3.73,3.73,0,0,0-3.42,3.39c-.14,1.44-.26,3.35-.26,5.63s.12,4.1.26,5.53a3.71,3.71,0,0,0,3.42,3.38c2.24.18,5.72.37,10.32.37,3.82,0,6.92-.18,9-.36A3.69,3.69,0,0,0,60,215.87,3.75,3.75,0,0,0,61,213.56c.14-1.44.26-3.34.26-5.59S61.18,203.81,61,202.37Zm-16,9.51v-7.83L52.73,208Z"/></svg>