<svg width="32" height="32" viewBox="0 0 32 32" fill="none" xmlns="http://www.w3.org/2000/svg">
<path d="M29.0777 10.407C28.9994 9.53324 28.6158 8.715 27.9943 8.09591C27.3728 7.47682 26.553 7.09645 25.679 7.02158C23.5888 6.84814 20.4907 6.66699 16.6681 6.66699C12.0648 6.66699 8.58993 6.85506 6.34342 7.03142C5.46527 7.10197 4.64037 7.48087 4.01469 8.10108C3.38902 8.72129 3.00289 9.54282 2.92464 10.4203C2.78712 11.8673 2.66797 13.7782 2.66797 16.0567C2.66797 18.2785 2.78613 20.1557 2.92301 21.5846C3.00204 22.4614 3.3885 23.2819 4.01405 23.9013C4.63961 24.5206 5.46399 24.8988 6.34146 24.9691C8.58789 25.1454 12.0634 25.3337 16.6681 25.3337C20.4907 25.3337 23.5888 25.1525 25.679 24.979C26.553 24.9042 27.3728 24.5238 27.9943 23.9047C28.6158 23.2857 28.9994 22.4674 29.0777 21.5937C29.2153 20.1543 29.3346 18.2562 29.3346 16.0003C29.3346 13.7445 29.2153 11.8464 29.0777 10.407ZM13.0359 19.9187V12.082L20.7666 16.0003L13.0359 19.9187Z" fill="black"/>
</svg>
