<svg width="32" height="32" viewBox="0 0 32 32" fill="none" xmlns="http://www.w3.org/2000/svg">
<path d="M9.33333 12H4V26.6667H9.33333V12Z" fill="black"/>
<path d="M6.66667 9.33333C8.13943 9.33333 9.33333 8.13943 9.33333 6.66667C9.33333 5.19391 8.13943 4 6.66667 4C5.19391 4 4 5.19391 4 6.66667C4 8.13943 5.19391 9.33333 6.66667 9.33333Z" fill="black"/>
<path d="M22 11C21.1013 11.0025 20.2147 11.208 19.4066 11.6013C18.5985 11.9946 17.8898 12.5655 17.3333 13.2712V12H12V26.6667H17.3333V17.3333C17.3333 16.6261 17.6143 15.9478 18.1144 15.4477C18.6145 14.9476 19.2928 14.6667 20 14.6667C20.7072 14.6667 21.3855 14.9476 21.8856 15.4477C22.3857 15.9478 22.6667 16.6261 22.6667 17.3333V26.6667H28V17C28 15.4087 27.3679 13.8826 26.2426 12.7574C25.1174 11.6321 23.5913 11 22 11Z" fill="black"/>
</svg>
