<svg width="32" height="32" viewBox="0 0 32 32" fill="none" xmlns="http://www.w3.org/2000/svg">
<path d="M20.6667 4H11.3333C9.38841 4 7.52315 4.77262 6.14788 6.14788C4.77262 7.52315 4 9.38841 4 11.3333V20.6667C4 22.6116 4.77262 24.4769 6.14788 25.8521C7.52315 27.2274 9.38841 28 11.3333 28H20.6667C22.6116 28 24.4769 27.2274 25.8521 25.8521C27.2274 24.4769 28 22.6116 28 20.6667V11.3333C28 9.38841 27.2274 7.52315 25.8521 6.14788C24.4769 4.77262 22.6116 4 20.6667 4ZM26 20.6667C25.9984 22.0807 25.436 23.4363 24.4361 24.4361C23.4363 25.436 22.0807 25.9984 20.6667 26H11.3333C9.91934 25.9984 8.56371 25.436 7.56387 24.4361C6.56402 23.4363 6.0016 22.0807 6 20.6667V11.3333C6.00159 9.91933 6.564 8.5637 7.56385 7.56385C8.5637 6.564 9.91933 6.00159 11.3333 6H20.6667C22.0807 6.00159 23.4363 6.564 24.4361 7.56385C25.436 8.5637 25.9984 9.91933 26 11.3333V20.6667Z" fill="black"/>
<path d="M16 10C14.8133 10 13.6533 10.3519 12.6666 11.0112C11.6799 11.6705 10.9109 12.6075 10.4567 13.7039C10.0026 14.8003 9.88378 16.0067 10.1153 17.1705C10.3468 18.3344 10.9182 19.4035 11.7574 20.2426C12.5965 21.0818 13.6656 21.6532 14.8295 21.8847C15.9933 22.1162 17.1997 21.9974 18.2961 21.5433C19.3925 21.0892 20.3295 20.3201 20.9888 19.3334C21.6481 18.3467 22 17.1867 22 16C22 14.4087 21.3679 12.8826 20.2426 11.7574C19.1174 10.6321 17.5913 10 16 10ZM16 20C15.2089 20 14.4355 19.7654 13.7777 19.3259C13.1199 18.8864 12.6072 18.2616 12.3045 17.5307C12.0017 16.7998 11.9225 15.9956 12.0769 15.2196C12.2312 14.4437 12.6122 13.731 13.1716 13.1716C13.731 12.6122 14.4437 12.2312 15.2196 12.0769C15.9956 11.9225 16.7998 12.0017 17.5307 12.3045C18.2616 12.6072 18.8864 13.1199 19.3259 13.7777C19.7654 14.4355 20 15.2089 20 16C19.9988 17.0605 19.577 18.0772 18.8271 18.8271C18.0772 19.577 17.0605 19.9988 16 20Z" fill="black"/>
<path d="M22.2669 11.0671C23.0033 11.0671 23.6003 10.4701 23.6003 9.73372C23.6003 8.99734 23.0033 8.40039 22.2669 8.40039C21.5305 8.40039 20.9336 8.99734 20.9336 9.73372C20.9336 10.4701 21.5305 11.0671 22.2669 11.0671Z" fill="black"/>
</svg>
