<svg width="32" height="32" viewBox="0 0 32 32" fill="none" xmlns="http://www.w3.org/2000/svg">
<path d="M29.0767 10.4067C28.9984 9.533 28.6148 8.71476 27.9933 8.09567C27.3718 7.47658 26.552 7.09621 25.678 7.02134C23.5878 6.8479 20.4898 6.66675 16.6672 6.66675C12.0638 6.66675 8.58895 6.85482 6.34245 7.03118C5.46429 7.10172 4.6394 7.48062 4.01372 8.10083C3.38804 8.72104 3.00191 9.54258 2.92366 10.4201C2.78614 11.867 2.66699 13.778 2.66699 16.0565C2.66699 18.2782 2.78515 20.1554 2.92203 21.5844C3.00107 22.4611 3.38752 23.2817 4.01308 23.901C4.63863 24.5204 5.46301 24.8986 6.34049 24.9688C8.58691 25.1452 12.0624 25.3334 16.6672 25.3334C20.4897 25.3334 23.5878 25.1523 25.678 24.9788C26.552 24.9039 27.3718 24.5236 27.9933 23.9045C28.6149 23.2854 28.9984 22.4672 29.0767 21.5934C29.2144 20.1541 29.3337 18.2559 29.3337 16.0001C29.3337 13.7442 29.2144 11.8461 29.0767 10.4067ZM13.0349 19.9185V12.0817L20.7657 16.0001L13.0349 19.9185Z" fill="#5E6E7B"/>
</svg>
