<svg width="32" height="32" viewBox="0 0 32 32" fill="none" xmlns="http://www.w3.org/2000/svg">
<path d="M29.8218 8.50302C28.7996 8.9574 27.6995 9.26389 26.5452 9.40105C27.7238 8.6955 28.6274 7.5779 29.0536 6.24468C27.9512 6.89887 26.7309 7.37357 25.431 7.62983C24.3907 6.52126 22.9079 5.82812 21.2671 5.82812C18.1169 5.82812 15.5628 8.38223 15.5628 11.533C15.5628 11.9794 15.6131 12.4146 15.7107 12.8329C10.9694 12.5947 6.76542 10.3239 3.95167 6.87235C3.4606 7.71449 3.17951 8.69437 3.17951 9.74085C3.17951 11.7198 4.18648 13.4662 5.71725 14.4889C4.78253 14.459 3.90256 14.2022 3.13322 13.7749C3.13266 13.7986 3.13266 13.8229 3.13266 13.8472C3.13266 16.6107 5.09918 18.9159 7.70917 19.4408C7.23052 19.5706 6.72647 19.6406 6.20605 19.6406C5.83804 19.6406 5.48074 19.6051 5.13248 19.5379C5.85892 21.8041 7.96543 23.454 10.4614 23.4997C8.50898 25.0299 6.0497 25.9421 3.3765 25.9421C2.91648 25.9421 2.4621 25.915 2.01562 25.8619C4.54095 27.4813 7.53927 28.4251 10.7605 28.4251C21.2541 28.4251 26.9917 19.7326 26.9917 12.1939C26.9917 11.9467 26.9866 11.7 26.9759 11.4551C28.0901 10.6524 29.0576 9.64715 29.8218 8.50302Z" fill="black"/>
</svg>
