<svg width="32" height="32" viewBox="0 0 32 32" fill="none" xmlns="http://www.w3.org/2000/svg">
<path d="M16.0768 4.55574C13.6308 4.50449 11.2646 5.42658 9.49823 7.11932C7.73189 8.81206 6.70999 11.1369 6.65715 13.5828C6.58941 14.5581 6.79527 15.533 7.25156 16.3976C7.70785 17.2622 8.39645 17.9823 9.23982 18.4768C9.33635 18.5347 9.4452 18.5691 9.55752 18.577C9.66983 18.5849 9.78244 18.5662 9.88616 18.5224C9.98987 18.4786 10.0818 18.4109 10.1544 18.3249C10.227 18.2388 10.2782 18.1368 10.304 18.0272L10.561 16.9299C10.5925 16.8121 10.5913 16.6879 10.5577 16.5707C10.5241 16.4535 10.4592 16.3477 10.37 16.2645C9.95922 15.8517 9.6551 15.345 9.48396 14.7882C9.31281 14.2315 9.27979 13.6415 9.38774 13.0692C9.54004 11.4106 10.3031 9.86786 11.5289 8.7403C12.7546 7.61275 14.3556 6.98084 16.0211 6.96725C20.1814 6.89367 22.6993 9.49725 21.8379 14.5221C20.9239 19.8536 16.5347 21.004 15.4953 18.1131C15.3409 17.5833 15.354 17.0186 15.533 16.4965C15.7716 15.6703 16.1855 14.3742 16.3879 13.6557C16.8664 11.9567 16.6979 10.3813 15.1516 10.0015C13.9532 9.70717 12.745 10.5165 12.222 12.3552C11.9649 13.4498 12.0708 14.5984 12.5239 15.6276L10.694 23.2068C10.5655 23.7388 10.5126 24.2862 10.5366 24.8329L10.6991 28.5164C10.7021 28.5854 10.7278 28.6515 10.7722 28.7044C10.8165 28.7574 10.8771 28.7943 10.9444 28.8094C11.0118 28.8245 11.0823 28.8171 11.1451 28.7882C11.2078 28.7593 11.2593 28.7106 11.2916 28.6495L13.0648 25.2917C13.2778 24.8884 13.4428 24.4615 13.5563 24.0197L14.5048 20.3293C17.6493 24.3749 24.2629 21.1231 25.1712 15.0407C26.2022 8.13466 22.2443 4.61175 16.0768 4.55574Z" fill="black"/>
</svg>
