<svg width="32" height="32" viewBox="0 0 32 32" fill="none" xmlns="http://www.w3.org/2000/svg">
<path d="M29.3334 18.688C29.3334 13.1043 25.8658 11.9551 23.3542 11.9551C22.5331 11.9042 21.7106 12.0299 20.9422 12.3237C20.1737 12.6174 19.4771 13.0726 18.8994 13.6583C18.3217 14.244 17.8763 14.9468 17.5931 15.7193C17.31 16.4917 17.1957 17.3159 17.258 18.1362C17.258 23.1688 20.0078 24.8229 23.594 24.8229C24.8303 24.8969 26.0554 24.5515 27.071 23.8426C28.0866 23.1337 28.8332 22.1028 29.1898 20.9167H25.7459C25.5737 21.3375 25.2728 21.693 24.8862 21.9323C24.4997 22.1717 24.0473 22.2826 23.5939 22.2493C23.198 22.2867 22.7987 22.2374 22.4237 22.1048C22.0488 21.9723 21.7072 21.7597 21.4227 21.4818C21.1382 21.204 20.9176 20.8675 20.7763 20.4957C20.635 20.124 20.5763 19.726 20.6043 19.3293H29.3334V18.688ZM20.7005 17.3336C20.8915 15.725 21.7292 14.5976 23.3069 14.5976C24.0097 14.625 24.6739 14.9268 25.1567 15.4383C25.6396 15.9499 25.9026 16.6303 25.8895 17.3336H20.7005Z" fill="#5E6E7B"/>
<path d="M26.6667 8.78101H20V10.6668H26.6667V8.78101Z" fill="#5E6E7B"/>
<path d="M13.7422 15.6086C14.3978 15.338 14.9487 14.8632 15.313 14.2547C15.6773 13.6462 15.8357 12.9365 15.7646 12.2308C15.7646 10.5304 14.7306 8.00317 10.6858 8.00317H2.66724V24.5011H9.65185C13.0296 24.5011 13.9257 23.9265 14.8686 23.0077C15.3188 22.5629 15.6766 22.0333 15.9212 21.4495C16.1657 20.8658 16.2923 20.2393 16.2936 19.6064C16.3761 18.7508 16.1696 17.8922 15.7072 17.1676C15.2447 16.443 14.553 15.8941 13.7422 15.6086ZM6.00057 10.6666H10.6672C11.1977 10.6666 11.7064 10.8773 12.0814 11.2524C12.4565 11.6274 12.6672 12.1362 12.6672 12.6666C12.6672 13.197 12.4565 13.7057 12.0814 14.0808C11.7064 14.4559 11.1977 14.6666 10.6672 14.6666H6.00057V10.6666ZM11.0006 21.3333H6.00057V17.3333H11.0006C11.531 17.3333 12.0397 17.544 12.4148 17.919C12.7899 18.2941 13.0006 18.8028 13.0006 19.3333C13.0006 19.8637 12.7899 20.3724 12.4148 20.7475C12.0397 21.1225 11.531 21.3333 11.0006 21.3333Z" fill="#5E6E7B"/>
</svg>
