<svg width="338" height="261" viewBox="0 0 338 261" fill="none" xmlns="http://www.w3.org/2000/svg">
<path d="M46.2643 0.771484V16.9366H33.7912V81.5473H12.7865V16.9366H0.363281V0.771484H46.2643Z" fill="#D5D5D5"/>
<path d="M101.393 0.771484V81.5473H80.3887V47.6204H74.1022V81.5473H53.0976V0.771484H74.1022V29.6592H80.3887V0.771484H101.393Z" fill="#D5D5D5"/>
<path d="M111.919 0.771484H146.943V16.9366H132.923V32.2536H146.045V47.6204H132.923V65.3821H148.34V81.5473H111.919V0.771484Z" fill="#D5D5D5"/>
<path d="M68.7658 89.1962V169.972H50.4054V115.44L43.0712 169.972H30.0493L22.3159 116.687V169.972H3.95553V89.1962H31.1469C31.9452 94.0524 32.7933 99.7733 33.6914 106.359L36.5852 126.915L41.3748 89.1962H68.7658Z" fill="#D5D5D5"/>
<path d="M115.513 89.1962L127.537 169.972H106.033L104.986 155.453H97.4519L96.2046 169.972H74.4515L85.1285 89.1962H115.513ZM104.387 141.134C103.323 131.987 102.258 120.695 101.194 107.257C99.0651 122.691 97.7346 133.983 97.2024 141.134H104.387Z" fill="#D5D5D5"/>
<path d="M183.215 89.1962L171.191 125.667L184.362 169.972H162.659L154.178 135.347V169.972H133.173V89.1962H154.178V120.578L163.507 89.1962H183.215Z" fill="#D5D5D5"/>
<path d="M190.098 89.1962H225.123V105.361H211.103V120.678H224.224V136.045H211.103V153.807H226.52V169.972H190.098V89.1962Z" fill="#D5D5D5"/>
<path d="M282.397 89.1962V143.18C282.397 149.3 282.197 153.607 281.798 156.102C281.399 158.563 280.218 161.108 278.256 163.735C276.294 166.33 273.699 168.309 270.473 169.673C267.28 171.003 263.504 171.668 259.147 171.668C254.324 171.668 250.067 170.87 246.375 169.273C242.683 167.677 239.922 165.598 238.093 163.037C236.263 160.476 235.182 157.782 234.85 154.954C234.517 152.094 234.351 146.107 234.351 136.993V89.1962H255.355V149.766C255.355 153.291 255.538 155.553 255.904 156.551C256.303 157.515 257.085 157.998 258.249 157.998C259.58 157.998 260.428 157.466 260.794 156.401C261.193 155.304 261.392 152.742 261.392 148.718V89.1962H282.397Z" fill="#D5D5D5"/>
<path d="M292.573 89.1962H313.727C319.448 89.1962 323.839 89.6452 326.899 90.5433C329.992 91.4413 332.304 92.7385 333.834 94.4349C335.397 96.1312 336.445 98.1934 336.977 100.622C337.543 103.016 337.825 106.742 337.825 111.797V118.832C337.825 123.988 337.293 127.746 336.229 130.108C335.165 132.469 333.202 134.282 330.342 135.546C327.514 136.81 323.806 137.442 319.216 137.442H313.578V169.972H292.573V89.1962ZM313.578 103.016V123.572C314.176 123.605 314.692 123.622 315.124 123.622C317.054 123.622 318.384 123.156 319.116 122.225C319.881 121.26 320.263 119.281 320.263 116.288V109.652C320.263 106.891 319.831 105.095 318.966 104.264C318.101 103.432 316.305 103.016 313.578 103.016Z" fill="#D5D5D5"/>
<path d="M48.4596 202.068H28.9516V196.081C28.9516 193.287 28.7022 191.508 28.2032 190.743C27.7043 189.978 26.8728 189.595 25.7086 189.595C24.4447 189.595 23.4801 190.111 22.8149 191.142C22.1829 192.173 21.8669 193.736 21.8669 195.832C21.8669 198.526 22.2328 200.555 22.9645 201.918C23.663 203.282 25.6421 204.929 28.9017 206.858C38.2482 212.412 44.1355 216.969 46.5636 220.528C48.9917 224.087 50.2058 229.825 50.2058 237.741C50.2058 243.495 49.5239 247.736 48.1602 250.464C46.8297 253.191 44.2353 255.486 40.377 257.349C36.5186 259.178 32.0283 260.093 26.906 260.093C21.2848 260.093 16.4785 259.029 12.4871 256.9C8.529 254.771 5.9346 252.06 4.70392 248.767C3.47324 245.474 2.8579 240.801 2.8579 234.748V229.459H22.3658V239.288C22.3658 242.315 22.6319 244.26 23.1641 245.125C23.7296 245.99 24.7108 246.422 26.1078 246.422C27.5047 246.422 28.5359 245.874 29.2011 244.776C29.8996 243.678 30.2488 242.049 30.2488 239.887C30.2488 235.13 29.6002 232.02 28.303 230.557C26.9726 229.093 23.6963 226.648 18.4742 223.222C13.2522 219.763 9.79294 217.252 8.0966 215.689C6.40026 214.125 4.98664 211.963 3.85575 209.203C2.75812 206.442 2.2093 202.916 2.2093 198.626C2.2093 192.439 2.99095 187.915 4.55424 185.055C6.1508 182.194 8.71194 179.966 12.2377 178.369C15.7634 176.739 20.0209 175.924 25.0101 175.924C30.465 175.924 35.105 176.806 38.9301 178.569C42.7884 180.332 45.333 182.56 46.5636 185.254C47.8276 187.915 48.4596 192.456 48.4596 198.875V202.068Z" fill="#D5D5D5"/>
<path d="M107.181 177.621V258.397H86.1762V224.47H79.8898V258.397H58.8851V177.621H79.8898V206.509H86.1762V177.621H107.181Z" fill="#D5D5D5"/>
<path d="M165.703 224.919C165.703 233.035 165.503 238.789 165.104 242.182C164.738 245.541 163.541 248.618 161.512 251.412C159.516 254.206 156.805 256.351 153.379 257.848C149.953 259.345 145.962 260.093 141.405 260.093C137.081 260.093 133.189 259.394 129.73 257.997C126.304 256.567 123.544 254.438 121.448 251.611C119.353 248.784 118.105 245.707 117.706 242.381C117.307 239.055 117.108 233.234 117.108 224.919V211.099C117.108 202.983 117.29 197.245 117.656 193.886C118.055 190.493 119.253 187.4 121.249 184.606C123.278 181.812 126.005 179.666 129.431 178.17C132.857 176.673 136.848 175.924 141.405 175.924C145.729 175.924 149.604 176.64 153.03 178.07C156.489 179.467 159.267 181.579 161.362 184.406C163.458 187.233 164.705 190.31 165.104 193.636C165.503 196.962 165.703 202.783 165.703 211.099V224.919ZM144.698 198.376C144.698 194.618 144.482 192.223 144.049 191.192C143.65 190.127 142.802 189.595 141.505 189.595C140.407 189.595 139.559 190.027 138.96 190.892C138.395 191.724 138.112 194.218 138.112 198.376V236.095C138.112 240.785 138.295 243.678 138.661 244.776C139.06 245.874 139.958 246.422 141.355 246.422C142.785 246.422 143.7 245.79 144.099 244.527C144.498 243.263 144.698 240.252 144.698 235.496V198.376Z" fill="#D5D5D5"/>
<path d="M254.659 177.621L245.329 258.397H219.086C216.691 245.99 214.579 231.887 212.749 216.088C211.918 222.84 209.972 236.943 206.912 258.397H180.818L171.438 177.621H191.844L193.99 205.81L196.185 233.001C196.95 218.932 198.879 200.472 201.972 177.621H223.825C224.125 179.982 224.89 188.863 226.12 204.263L228.415 234.947C229.58 215.423 231.525 196.314 234.253 177.621H254.659Z" fill="#D5D5D5"/>
</svg>
